<svg id="visual" viewBox="0 0 900 600" width="900" height="600" xmlns="http://www.w3.org/2000/svg" xmlns:xlink="http://www.w3.org/1999/xlink" version="1.1"><rect x="0" y="0" width="900" height="600" fill="#efefef"></rect><path d="M0 132L56 132L56 107L113 107L113 85L169 85L169 112L225 112L225 107L281 107L281 174L338 174L338 153L394 153L394 169L450 169L450 107L506 107L506 144L563 144L563 114L619 114L619 133L675 133L675 178L731 178L731 110L788 110L788 169L844 169L844 163L900 163L900 125L900 0L900 0L844 0L844 0L788 0L788 0L731 0L731 0L675 0L675 0L619 0L619 0L563 0L563 0L506 0L506 0L450 0L450 0L394 0L394 0L338 0L338 0L281 0L281 0L225 0L225 0L169 0L169 0L113 0L113 0L56 0L56 0L0 0Z" fill="#c0c0c0"></path><path d="M0 75L56 75L56 94L113 94L113 93L169 93L169 70L225 70L225 139L281 139L281 101L338 101L338 97L394 97L394 67L450 67L450 117L506 117L506 76L563 76L563 76L619 76L619 137L675 137L675 119L731 119L731 107L788 107L788 131L844 131L844 110L900 110L900 129L900 0L900 0L844 0L844 0L788 0L788 0L731 0L731 0L675 0L675 0L619 0L619 0L563 0L563 0L506 0L506 0L450 0L450 0L394 0L394 0L338 0L338 0L281 0L281 0L225 0L225 0L169 0L169 0L113 0L113 0L56 0L56 0L0 0Z" fill="#c8c8c8"></path><path d="M0 94L56 94L56 87L113 87L113 99L169 99L169 112L225 112L225 62L281 62L281 99L338 99L338 96L394 96L394 114L450 114L450 122L506 122L506 83L563 83L563 120L619 120L619 79L675 79L675 108L731 108L731 81L788 81L788 75L844 75L844 104L900 104L900 97L900 0L900 0L844 0L844 0L788 0L788 0L731 0L731 0L675 0L675 0L619 0L619 0L563 0L563 0L506 0L506 0L450 0L450 0L394 0L394 0L338 0L338 0L281 0L281 0L225 0L225 0L169 0L169 0L113 0L113 0L56 0L56 0L0 0Z" fill="#d0d0d0"></path><path d="M0 68L56 68L56 67L113 67L113 43L169 43L169 37L225 37L225 77L281 77L281 76L338 76L338 44L394 44L394 48L450 48L450 78L506 78L506 58L563 58L563 44L619 44L619 88L675 88L675 73L731 73L731 41L788 41L788 60L844 60L844 86L900 86L900 74L900 0L900 0L844 0L844 0L788 0L788 0L731 0L731 0L675 0L675 0L619 0L619 0L563 0L563 0L506 0L506 0L450 0L450 0L394 0L394 0L338 0L338 0L281 0L281 0L225 0L225 0L169 0L169 0L113 0L113 0L56 0L56 0L0 0Z" fill="#d8d8d8"></path><path d="M0 46L56 46L56 59L113 59L113 45L169 45L169 25L225 25L225 21L281 21L281 50L338 50L338 40L394 40L394 47L450 47L450 20L506 20L506 49L563 49L563 53L619 53L619 44L675 44L675 50L731 50L731 58L788 58L788 21L844 21L844 39L900 39L900 22L900 0L900 0L844 0L844 0L788 0L788 0L731 0L731 0L675 0L675 0L619 0L619 0L563 0L563 0L506 0L506 0L450 0L450 0L394 0L394 0L338 0L338 0L281 0L281 0L225 0L225 0L169 0L169 0L113 0L113 0L56 0L56 0L0 0Z" fill="#e0e0e0"></path></svg>